<svg id="Layer_1" data-name="Layer 1" xmlns="http://www.w3.org/2000/svg" viewBox="0 0 1700.8 1700.8"><defs><style>.cls-1{fill:#526d82;}.cls-2{fill:#9db2bf;}.cls-3{fill:none;stroke:#9db2bf;stroke-miterlimit:10;stroke-width:20px;}</style></defs><rect class="cls-1" width="1700.8" height="1700.79"/><polygon class="cls-2" points="845.1 1159.4 1051.1 1571.4 1566.2 1571.4 1566.2 1056.4 1154.1 850.4 1463.2 1468.4 845.1 1159.4"/><polygon class="cls-2" points="536.1 850.4 124.1 1056.4 124.1 1571.4 639.1 1571.4 845.1 1159.4 227.1 1468.4 536.1 850.4"/><polygon class="cls-2" points="1566.2 129.4 1051.1 129.4 845.1 541.4 1463.2 232.4 1154.1 850.4 1566.2 644.4 1566.2 129.4"/><polygon class="cls-2" points="845.1 541.4 639.1 129.4 124.1 129.4 124.1 644.4 536.1 850.4 227.1 232.4 845.1 541.4"/><rect class="cls-3" x="81" y="81" width="1538.8" height="1538.78"/></svg>