<svg id="Layer_2" data-name="Layer 2" xmlns="http://www.w3.org/2000/svg" viewBox="0 0 873 207"><defs><style>.cls-1{fill:#526d82;}</style></defs><rect class="cls-1" x="386.82" y="17.84" width="265.54" height="36.16"/><rect class="cls-1" x="297" y="63" width="342.99" height="36"/><rect class="cls-1" x="751.35" y="409.48" width="81.16" height="35.87" transform="translate(1084.35 -733.52) rotate(90)"/><rect class="cls-1" x="409.85" y="453.93" width="171.22" height="36.92" transform="translate(832.85 -392.07) rotate(90)"/><rect class="cls-1" x="409.42" y="409.42" width="81.16" height="36" transform="translate(742.42 -391.58) rotate(90)"/><rect class="cls-1" x="297" y="17.78" width="81.92" height="36.22"/><rect class="cls-1" x="387" y="153" width="287.84" height="36"/><rect class="cls-1" x="423" y="108" width="162" height="36"/><rect class="cls-1" x="319.5" y="409.5" width="81" height="36" transform="translate(652.5 -301.5) rotate(90)"/><rect class="cls-1" x="63" y="153" width="45" height="36"/><rect class="cls-1" x="387" y="108" width="36" height="45"/><rect class="cls-1" x="297" y="108" width="36" height="81"/><rect class="cls-1" x="252" y="18" width="36" height="171"/><rect class="cls-1" x="166.54" y="153" width="85.46" height="36"/><rect class="cls-1" x="153" y="159.75" width="37.11" height="29.25"/><rect class="cls-1" x="333" y="468" width="36" height="54" transform="translate(711 -225) rotate(90)"/><rect class="cls-1" x="279.92" y="490.67" width="52.16" height="36" transform="translate(679.67 -166.33) rotate(90)"/><rect class="cls-1" x="153" y="112.35" width="44.64" height="22.65"/><rect class="cls-1" x="278.03" y="432" width="94.27" height="36" transform="translate(515.33 531) rotate(-180)"/><rect class="cls-1" x="288" y="387" width="54" height="36" transform="translate(495 441) rotate(180)"/><rect class="cls-1" x="729" y="477" width="36" height="36" transform="translate(1359 621) rotate(180)"/><rect class="cls-1" x="774" y="477" width="36" height="36" transform="translate(1449 621) rotate(180)"/><rect class="cls-1" x="175.48" y="454.48" width="171.05" height="36" transform="translate(598.48 -157.52) rotate(90)"/><rect class="cls-1" x="153" y="387" width="36" height="36" transform="translate(207 441) rotate(180)"/><rect class="cls-1" x="63" y="99" width="36" height="45"/><rect class="cls-1" x="18" y="108" width="63" height="36"/><rect class="cls-1" x="189" y="423" width="36" height="54" transform="translate(522 -126) rotate(90)"/><rect class="cls-1" x="153" y="432" width="36" height="36" transform="translate(486 -90) rotate(90)"/><rect class="cls-1" x="18" y="63" width="36" height="54"/><rect class="cls-1" x="198" y="387" width="36" height="36" transform="translate(297 441) rotate(180)"/><rect class="cls-1" x="279.39" y="469.33" width="53.22" height="36" transform="translate(658.33 -187.67) rotate(90)"/><rect class="cls-1" x="153" y="522" width="36" height="36" transform="translate(207 711) rotate(180)"/><rect class="cls-1" width="8.87" height="207"/><rect class="cls-1" x="864.13" width="8.87" height="207"/><rect class="cls-1" x="567.06" y="135.06" width="8.87" height="873" transform="translate(1008.06 -368.94) rotate(90)"/><rect class="cls-1" x="567.06" y="-63.04" width="8.87" height="873" transform="translate(809.96 -567.04) rotate(90)"/><rect class="cls-1" x="333" y="477" width="45" height="45" transform="translate(720 -225) rotate(90)"/><polygon class="cls-1" points="769.5 140.14 793.93 189 855 189 855 127.93 806.14 103.5 842.79 176.79 769.5 140.14"/><polygon class="cls-1" points="732.86 103.5 684 127.93 684 189 745.07 189 769.5 140.14 696.21 176.79 732.86 103.5"/><polygon class="cls-1" points="855 18 793.93 18 769.5 66.86 842.79 30.21 806.14 103.5 855 79.07 855 18"/><polygon class="cls-1" points="769.5 66.86 745.07 18 684 18 684 79.07 732.86 103.5 696.21 30.21 769.5 66.86"/></svg>