<svg id="Layer_2" data-name="Layer 2" xmlns="http://www.w3.org/2000/svg" viewBox="0 0 873 207"><defs><style>.cls-1{fill:#526d82;}</style></defs><rect class="cls-1" x="386.8" y="17.8" width="265.5" height="36.16"/><rect class="cls-1" x="297" y="63" width="343" height="36"/><rect class="cls-1" x="751.3" y="499.5" width="81.2" height="35.87" transform="translate(1174.4 -733.4) rotate(90)"/><rect class="cls-1" x="342" y="87.3" width="36.9" height="101.66"/><rect class="cls-1" x="351" y="17.8" width="27.9" height="69.56"/><rect class="cls-1" x="404.8" y="503.9" width="81.2" height="27" transform="translate(827.9 -387) rotate(90)"/><rect class="cls-1" x="297" y="17.8" width="81.9" height="36.22"/><rect class="cls-1" x="387" y="153" width="287.8" height="36"/><rect class="cls-1" x="423" y="108" width="162" height="36"/><rect class="cls-1" x="319.4" y="499.5" width="81" height="36" transform="translate(742.5 -301.4) rotate(90)"/><rect class="cls-1" x="63" y="153" width="45" height="36"/><rect class="cls-1" x="387" y="108" width="36" height="45"/><rect class="cls-1" x="297" y="108" width="36" height="81"/><rect class="cls-1" x="252" y="18" width="36" height="171"/><rect class="cls-1" x="166.5" y="153" width="103.5" height="36"/><rect class="cls-1" x="153" y="159.7" width="37.1" height="29.25"/><rect class="cls-1" x="314.9" y="540" width="36" height="90" transform="translate(783 -206.9) rotate(90)"/><rect class="cls-1" x="276.8" y="583.7" width="52.2" height="30" transform="translate(766.7 -163.3) rotate(90)"/><rect class="cls-1" x="153" y="112.3" width="44.6" height="22.65"/><rect class="cls-1" x="278" y="522" width="94.3" height="36" transform="translate(515.3 621) rotate(-180)"/><rect class="cls-1" x="287.9" y="477" width="54" height="36" transform="translate(494.9 531) rotate(180)"/><rect class="cls-1" x="728.9" y="567" width="36" height="36" transform="translate(1358.9 711) rotate(180)"/><rect class="cls-1" x="773.9" y="567" width="36" height="36" transform="translate(1448.9 711) rotate(180)"/><rect class="cls-1" x="175.4" y="544.5" width="171" height="36" transform="translate(688.5 -157.5) rotate(90)"/><rect class="cls-1" x="152.9" y="477" width="36" height="36" transform="translate(206.9 531) rotate(180)"/><rect class="cls-1" x="72" y="99" width="27" height="45"/><rect class="cls-1" x="18" y="108" width="63" height="36"/><rect class="cls-1" x="188.9" y="513" width="36" height="54" transform="translate(612 -125.9) rotate(90)"/><rect class="cls-1" x="152.9" y="522" width="36" height="36" transform="translate(576 -89.9) rotate(90)"/><rect class="cls-1" x="18" y="63" width="27" height="54"/><rect class="cls-1" x="197.9" y="477" width="36" height="36" transform="translate(296.9 531) rotate(180)"/><rect class="cls-1" x="279.8" y="558.9" width="52.3" height="36" transform="translate(747.9 -188.1) rotate(90)"/><rect class="cls-1" x="152.9" y="612" width="36" height="36" transform="translate(206.9 801) rotate(180)"/><rect class="cls-1" width="8.9" height="207"/><rect class="cls-1" x="864.1" width="8.9" height="207"/><rect class="cls-1" x="567" y="225.1" width="8.9" height="873" transform="translate(1098.1 -368.9) rotate(90)"/><rect class="cls-1" x="567" y="27" width="8.9" height="873" transform="translate(900 -567) rotate(90)"/><rect class="cls-1" x="335.9" y="579" width="54" height="30" transform="translate(822 -227.9) rotate(90)"/><polygon class="cls-1" points="769.5 140.1 793.9 189 855 189 855 127.9 806.1 103.5 842.8 176.8 769.5 140.1"/><polygon class="cls-1" points="732.9 103.5 684 127.9 684 189 745.1 189 769.5 140.1 696.2 176.8 732.9 103.5"/><polygon class="cls-1" points="855 18 793.9 18 769.5 66.9 842.8 30.2 806.1 103.5 855 79.1 855 18"/><polygon class="cls-1" points="769.5 66.9 745.1 18 684 18 684 79.1 732.9 103.5 696.2 30.2 769.5 66.9"/></svg>